<?xml version="1.0" encoding="UTF-8"?>
<svg version="1.1" xmlns="http://www.w3.org/2000/svg" width="512" height="512">
<path d="M0 0 C0 168.96 0 337.92 0 512 C-38.41771218 492.79114391 -91.89199197 443.37353108 -106.46337891 402.42701721 C-119.93272133 361.92527379 -117.38190955 316.11674228 -115.9280746 274.07318303 C-115.49318168 261.22640798 -115.58804282 248.47169212 -116.05761719 235.62744141 C-118.32050677 172.11607462 -119.84524482 112.46167108 -74.67368123 63.25141961 C-15.69115621 -0 -15.69115621 -0 0 0 Z " fill="#000000" transform="translate(154,0)"/>
<path d="M0 0 C37.22231605 18.61115803 91.41502394 67.51209366 105.45769759 107.27693977 C112.20102507 128.25582035 112.76851939 150.72493696 112.66796875 172.57421875 C112.66407622 173.73188239 112.66407622 173.73188239 112.66010505 174.91293317 C112.57009234 194.71404882 111.52232925 214.42668523 110.13063824 234.17377579 C109.33306818 245.62053056 108.80126473 257.05907591 108.43823242 268.52758789 C108.39921798 269.75655308 108.39921798 269.75655308 108.35941537 271.01034584 C108.23011808 275.12494253 108.10503491 279.23965454 107.98203695 283.35444391 C106.97219309 316.95866735 105.15983545 350.44518583 103 384 C69.01 384 35.02 384 0 384 C0 257.28 0 130.56 0 0 Z " fill="#000000" transform="translate(358,0)"/>
<path d="M0 0 C93.06 0 186.12 0 282 0 C272.17109917 19.65780165 256.08001216 37.25601908 241.6875 53.75 C241.17870914 54.33589417 240.66991828 54.92178834 240.14570951 55.52543688 C212.84991361 86.84356004 185.77063209 106.18499094 143.420515 109.0933665 C123.69985023 110.24381817 104.03962169 110.00288251 84.3125 109.1875 C83.27317432 109.14566526 82.23384864 109.10383053 81.16302824 109.06072807 C73.89155105 108.76269063 66.62343686 108.41605697 59.35620117 108.02832031 C58.441626 107.979687 57.52705083 107.93105369 56.58476126 107.88094664 C37.65846346 106.83481427 18.88481451 104.82005081 0 103 C0 69.01 0 35.02 0 0 Z " fill="#000000" transform="translate(179,409)"/>
</svg>
